# xmcd CD database file
#
# Track frame offsets:
#	150
#	41580
#	67206
#	87801
#	137066
#	162264
#	203258
#
# Disc length: 2995 seconds
#
# Revision: 0
# Processed by: cddbd v1.5.2PL0 Copyright (c) Steve Scherf et al.
# Submitted via: CDex 1.70beta2
#
DISCID=580bb107
DTITLE=Sonny Stitt and Zoot Sims - The Savoy Recordings  [CD 2)
DYEAR=1973
DGENRE=Jazz
TTITLE0=That Old Devil Called Love
TTITLE1=Polka Dots And Moonbeans
TTITLE2=I've Got It Bad And That Ain't Good
TTITLE3=Do Nothing Till You Hear From Me
TTITLE4=In A Mellow Tone
TTITLE5=I Don't Stand A Ghost Of A Chance With You
TTITLE6=Theme
EXTD=
EXTT0=
EXTT1=
EXTT2=
EXTT3=
EXTT4=
EXTT5=
EXTT6=
PLAYORDER=
